<svg width="100px" height="100px" viewBox="-51.2 -51.2 614.40 614.40" version="1.1" xmlns="http://www.w3.org/2000/svg" xmlns:xlink="http://www.w3.org/1999/xlink" fill="#fcfcfc" transform="rotate(0)matrix(1, 0, 0, 1, 0, 0)" stroke="#fcfcfc"><g id="SVGRepo_bgCarrier" stroke-width="0" transform="translate(0,0), scale(1)"><path transform="translate(-51.2, -51.2), scale(38.4)" fill="#555b6e" d="M9.166.33a2.25 2.25 0 00-2.332 0l-5.25 3.182A2.25 2.25 0 00.5 5.436v5.128a2.25 2.25 0 001.084 1.924l5.25 3.182a2.25 2.25 0 002.332 0l5.25-3.182a2.25 2.25 0 001.084-1.924V5.436a2.25 2.25 0 00-1.084-1.924L9.166.33z" strokewidth="0"></path></g><g id="SVGRepo_tracerCarrier" stroke-linecap="round" stroke-linejoin="round"></g><g id="SVGRepo_iconCarrier"> <title>item-details-filled</title> <g id="Page-1" stroke="none" stroke-width="1" fill="none" fill-rule="evenodd"> <g id="icon" fill="#fff" transform="translate(42.666667, 85.333333)"> <path d="M426.666667,1.42108547e-14 L426.666667,341.333333 L3.55271368e-14,341.333333 L3.55271368e-14,1.42108547e-14 L426.666667,1.42108547e-14 Z M362.666667,213.333333 L234.666667,213.333333 L234.666667,245.333333 L362.666667,245.333333 L362.666667,213.333333 Z M362.666667,149.333333 L234.666667,149.333333 L234.666667,181.333333 L362.666667,181.333333 L362.666667,149.333333 Z M192,85.3333333 L64,85.3333333 L64,181.333333 L192,181.333333 L192,85.3333333 Z M362.666667,85.3333333 L234.666667,85.3333333 L234.666667,117.333333 L362.666667,117.333333 L362.666667,85.3333333 Z" id="Combined-Shape"> </path> </g> </g> </g></svg>