<svg width="80px" height="80px" viewBox="-2.4 -2.4 28.80 28.80" xmlns="http://www.w3.org/2000/svg" fill="#fff" stroke="#fff" transform="rotate(0)"><g id="SVGRepo_bgCarrier" stroke-width="0"></g><g id="SVGRepo_tracerCarrier" stroke-linecap="round" stroke-linejoin="round"></g><g id="SVGRepo_iconCarrier"><path d="M21 18v-4h-5.042L13 11.042V8.95a3.5 3.5 0 1 0-1 0v2.074L9.024 14H4v4H2v5h5v-5H5v-3h3.958l3.532 3.533L16.024 15H20v3h-2v5h5v-5zM6 22H3v-3h3zm4-16.5A2.5 2.5 0 1 1 12.5 8 2.5 2.5 0 0 1 10 5.5zm2.485 11.633l-2.6-2.6 2.5-2.5h.2l2.5 2.5zM22 22h-3v-3h3z"></path><path fill="none" d="M0 0h24v24H0z"></path></g></svg>